<?xml version="1.0" encoding="UTF-8" standalone="no"?>
<!-- Generated by graphviz version 2.38.0 (20140413.2041)
 -->

<!-- Title: G Pages: 1 -->

<svg
   xmlns:dc="http://purl.org/dc/elements/1.1/"
   xmlns:cc="http://creativecommons.org/ns#"
   xmlns:rdf="http://www.w3.org/1999/02/22-rdf-syntax-ns#"
   xmlns:svg="http://www.w3.org/2000/svg"
   xmlns="http://www.w3.org/2000/svg"
   xmlns:sodipodi="http://sodipodi.sourceforge.net/DTD/sodipodi-0.dtd"
   xmlns:inkscape="http://www.inkscape.org/namespaces/inkscape"
   width="688.75"
   height="359.81021"
   viewBox="0 0 551 287.84817"
   id="svg2"
   version="1.1"
   inkscape:version="0.48.5 r10040"
   sodipodi:docname="communicationBetweenFPGAAndARM.svg">
  <metadata
     id="metadata116">
    <rdf:RDF>
      <cc:Work
         rdf:about="">
        <dc:format>image/svg+xml</dc:format>
        <dc:type
           rdf:resource="http://purl.org/dc/dcmitype/StillImage" />
      </cc:Work>
    </rdf:RDF>
  </metadata>
  <defs
     id="defs114" />
  <sodipodi:namedview
     pagecolor="#ffffff"
     bordercolor="#666666"
     borderopacity="1"
     objecttolerance="10"
     gridtolerance="10"
     guidetolerance="10"
     inkscape:pageopacity="0"
     inkscape:pageshadow="2"
     inkscape:window-width="1366"
     inkscape:window-height="717"
     id="namedview112"
     showgrid="false"
     fit-margin-top="0"
     fit-margin-left="0"
     fit-margin-right="0"
     fit-margin-bottom="0"
     inkscape:zoom="1.3469678"
     inkscape:cx="402.98453"
     inkscape:cy="139.78099"
     inkscape:window-x="0"
     inkscape:window-y="0"
     inkscape:window-maximized="1"
     inkscape:current-layer="svg2" />
  <polygon
     style="fill:#ffffff;stroke:none"
     id="polygon7"
     points="-4,-269 547,-269 547,4 -4,4 -4,4 "
     transform="matrix(1,0,0,1.0543889,4,283.63061)" />
  <g
     class="cluster"
     id="clust1"
     transform="translate(4,269)">
    <title
       id="title10">cluster0</title>
    <polygon
       style="fill:none;stroke:#0000ff"
       id="polygon12"
       points="8,-8 8,-257 248,-257 248,-8 8,-8 " />
    <text
       style="font-size:14px;text-anchor:middle;font-family:'Times,serif'"
       id="text14"
       font-size="14.00"
       y="-241.8"
       x="128">ARM</text>
  </g>
  <g
     class="cluster"
     id="clust2"
     transform="translate(4,269)">
    <title
       id="title17">cluster1</title>
    <polygon
       style="fill:none;stroke:#0000ff"
       id="polygon19"
       points="379,-8 379,-257 535,-257 535,-8 379,-8 " />
    <text
       style="font-size:14px;text-anchor:middle;font-family:'Times,serif'"
       id="text21"
       font-size="14.00"
       y="-241.8"
       x="457">FPGA</text>
  </g>
  <g
     class="node"
     id="node1"
     transform="translate(4,269)">
    <title
       id="title24">a0</title>
    <ellipse
       style="fill:none;stroke:#000000"
       sodipodi:ry="18"
       sodipodi:rx="66.888199"
       sodipodi:cy="-208"
       sodipodi:cx="138"
       d="m 204.8882,-208 c 0,9.94113 -29.94687,18 -66.8882,18 -36.94133,0 -66.888199,-8.05887 -66.888199,-18 0,-9.94113 29.946869,-18 66.888199,-18 36.94133,0 66.8882,8.05887 66.8882,18 z"
       id="ellipse26"
       ry="18"
       rx="66.888199"
       cy="-208"
       cx="138" />
    <text
       style="font-size:14px;text-anchor:middle;font-family:'Times,serif'"
       id="text28"
       font-size="14.00"
       y="-204.3"
       x="138">inicia programa</text>
  </g>
  <g
     class="node"
     id="node2"
     transform="translate(4,269)">
    <title
       id="title31">a1</title>
    <ellipse
       style="fill:none;stroke:#000000"
       sodipodi:ry="18"
       sodipodi:rx="102.082"
       sodipodi:cy="-121"
       sodipodi:cx="138"
       d="m 240.082,-121 c 0,9.94113 -45.70367,18 -102.082,18 -56.378332,0 -102.082001,-8.05887 -102.082001,-18 0,-9.94113 45.703669,-18 102.082001,-18 56.37833,0 102.082,8.05887 102.082,18 z"
       id="ellipse33"
       ry="18"
       rx="102.082"
       cy="-121"
       cx="138" />
    <text
       style="font-size:14px;text-anchor:middle;font-family:'Times,serif'"
       id="text35"
       font-size="14.00"
       y="-117.3"
       x="138">confirmado envio de msg</text>
  </g>
  <g
     class="node"
     id="node4"
     transform="translate(4,269)">
    <title
       id="title38">b0</title>
    <ellipse
       style="fill:none;stroke:#000000"
       sodipodi:ry="18"
       sodipodi:rx="70.3881"
       sodipodi:cy="-208"
       sodipodi:cx="457"
       d="m 527.3881,-208 c 0,9.94113 -31.51383,18 -70.3881,18 -38.87427,0 -70.3881,-8.05887 -70.3881,-18 0,-9.94113 31.51383,-18 70.3881,-18 38.87427,0 70.3881,8.05887 70.3881,18 z"
       id="ellipse40"
       ry="18"
       rx="70.3881"
       cy="-208"
       cx="457" />
    <text
       style="font-size:14px;text-anchor:middle;font-family:'Times,serif'"
       id="text42"
       font-size="14.00"
       y="-204.3"
       x="457">inicia o contador</text>
  </g>
  <path
     d="m 209.262,61.000004 c 50.058,0 118.585,0 171.503,0"
     id="path47"
     inkscape:connector-curvature="0"
     style="fill:none;stroke:#000000" />
  <polygon
     points="376.793,-211.5 376.793,-211.5 386.793,-208 376.793,-204.5 "
     id="polygon49"
     style="fill:#000000;stroke:#000000"
     transform="translate(4,269)" />
  <text
     x="314.12924"
     y="53.606075"
     font-size="14.00"
     id="text51"
     style="font-size:14px;text-anchor:middle;font-family:'Times,serif'">msg=0x00000001</text>
  <g
     class="node"
     id="node3"
     transform="translate(4,269)">
    <title
       id="title54">a2</title>
    <ellipse
       style="fill:none;stroke:#000000"
       sodipodi:ry="18"
       sodipodi:rx="107.781"
       sodipodi:cy="-34"
       sodipodi:cx="124"
       d="m 231.781,-34 c 0,9.941125 -48.2552,18 -107.781,18 -59.525802,0 -107.780998,-8.058875 -107.780998,-18 0,-9.941125 48.255196,-18 107.780998,-18 59.5258,0 107.781,8.058875 107.781,18 z"
       id="ellipse56"
       ry="18"
       rx="107.781"
       cy="-34"
       cx="124" />
    <text
       style="font-size:14px;text-anchor:middle;font-family:'Times,serif'"
       id="text58"
       font-size="14.00"
       y="-30.299999"
       x="124">imprimir valor do contador</text>
  </g>
  <g
     class="node"
     id="node6"
     transform="translate(4,269)">
    <title
       id="title61">b1</title>
    <ellipse
       style="fill:none;stroke:#000000"
       sodipodi:ry="18"
       sodipodi:rx="65.788696"
       sodipodi:cy="-34"
       sodipodi:cx="461"
       d="m 526.7887,-34 c 0,9.941125 -29.45461,18 -65.7887,18 -36.33409,0 -65.7887,-8.058875 -65.7887,-18 0,-9.941125 29.45461,-18 65.7887,-18 36.33409,0 65.7887,8.058875 65.7887,18 z"
       id="ellipse63"
       ry="18"
       rx="65.788696"
       cy="-34"
       cx="461" />
    <text
       style="font-size:14px;text-anchor:middle;font-family:'Times,serif'"
       id="text65"
       font-size="14.00"
       y="-30.299999"
       x="461">para o contador</text>
  </g>
  <path
     d="m 196.427,163.323 c 59.231,15.5869 153.432,40.3767 213.078,56.0731"
     id="path70"
     inkscape:connector-curvature="0"
     style="fill:none;stroke:#000000" />
  <polygon
     points="406.717,-52.9043 406.717,-52.9043 415.497,-46.9745 404.935,-46.1348 "
     id="polygon72"
     style="fill:#000000;stroke:#000000"
     transform="translate(4,269)" />
  <text
     x="350.47253"
     y="100.95095"
     font-size="14.00"
     id="text74"
     style="font-size:14px;text-anchor:middle;font-family:'Times,serif'"
     transform="matrix(0.96411229,0.26549481,-0.26549481,0.96411229,0,0)">msg=0x00000002</text>
  <g
     class="edge"
     id="edge4"
     transform="translate(4,269)">
    <title
       id="title77">a2-&gt;a0</title>
    <path
       style="fill:none;stroke:#000000"
       inkscape:connector-curvature="0"
       id="path79"
       d="M 85.6038,-50.9659 C 64.1597,-62.1167 39.3388,-79.2815 27,-103 c -7.3841,-14.194 -7.8189,-22.041 0,-36 13.1039,-23.395 37.9058,-39.711 60.7469,-50.485" />
    <polygon
       style="fill:#000000;stroke:#000000"
       id="polygon81"
       points="97.0406,-193.626 89.3311,-186.359 86.4818,-192.753 86.4818,-192.753 " />
  </g>
  <path
     d="M 414.273,74.451004 C 359.192,89.127004 267.375,113.593 205.781,130.005"
     id="path86"
     inkscape:connector-curvature="0"
     style="fill:none;stroke:#000000" />
  <polygon
     points="202.351,-135.525 202.351,-135.525 191.787,-136.332 200.549,-142.289 "
     id="polygon88"
     style="fill:#000000;stroke:#000000"
     transform="translate(4,269)" />
  <text
     x="280.77353"
     y="170.48422"
     font-size="14.00"
     id="text90"
     style="font-size:14px;text-anchor:middle;font-family:'Times,serif'"
     transform="matrix(0.97158755,-0.23668044,0.23668044,0.97158755,0,0)">msg=0x00020000</text>
  <g
     id="g3157"
     transform="translate(0,4.1e-6)">
    <path
       style="fill:none;stroke:#000000"
       inkscape:connector-curvature="0"
       id="path95"
       d="m 399.269,235 c -43.47,0 -101.706,0 -153.074,0" />
    <polygon
       transform="translate(4,269)"
       style="fill:#000000;stroke:#000000"
       id="polygon97"
       points="242.019,-30.5001 242.019,-30.5001 232.019,-34 242.019,-37.5001 " />
  </g>
  <text
     x="316.37546"
     y="251.53612"
     font-size="14.00"
     id="text99"
     style="font-size:14px;text-anchor:middle;font-family:'Times,serif'">(msg&gt;&gt;16)=3</text>
  <text
     x="316.37546"
     y="266.53613"
     font-size="14.00"
     id="text101"
     style="font-size:14px;text-anchor:middle;font-family:'Times,serif'">e</text>
  <text
     x="316.37546"
     y="281.53613"
     font-size="14.00"
     id="text103"
     style="font-size:14px;text-anchor:middle;font-family:'Times,serif'">(msg&amp;0xffff)=contador</text>
  <g
     class="edge"
     id="edge6"
     transform="translate(4,269)">
    <title
       id="title106">b1-&gt;b0</title>
    <path
       style="fill:none;stroke:#000000"
       inkscape:connector-curvature="0"
       id="path108"
       d="m 461.656,-52.3042 c 0.669,-20.645 1.464,-56.2008 0.344,-86.6958 -0.494,-13.45 -1.535,-28.365 -2.54,-40.792" />
    <polygon
       style="fill:#000000;stroke:#000000"
       id="polygon110"
       points="458.6,-189.972 462.929,-180.302 455.954,-179.713 455.954,-179.713 " />
  </g>
</svg>
